<?xml version="1.0" encoding="utf-8"?>
<!-- Generator: Adobe Illustrator 24.0.0, SVG Export Plug-In . SVG Version: 6.00 Build 0)  -->
<svg version="1.1" id="Layer_1" xmlns="http://www.w3.org/2000/svg" xmlns:xlink="http://www.w3.org/1999/xlink" x="0px" y="0px"
	 viewBox="0 0 662.9 155.2" style="enable-background:new 0 0 662.9 155.2;" xml:space="preserve">
<style type="text/css">
	.st0{fill:#161616;}
	.st1{fill:#58C1D7;}
	.st2{fill:#FFFFFF;}
</style>
<g>
	<path class="st0" d="M218.7,61.5c-35.9,0-40.4,34.2-40.4,48.6c0,36.1,22.4,44.9,43,44.9c10.3,0,21.9-1.9,30.3-5.8v-9.5
		c-7.5,4.1-18.5,6.4-29.6,6.4c-17.6,0-29.4-6.3-33-24.4c-1-3.9-0.8-4.8-1.2-7.9h69.8c0-0.2,0.2-0.7,0.2-4.9
		C257.8,102.9,257.5,61.5,218.7,61.5 M187.9,105.5c0.9-22.1,10.7-35.2,30.3-35.2c29,0,30.1,30.7,30.1,35.2H187.9z M464.2,61.5
		c-35.9,0-40.4,34.2-40.4,48.6c0,36.1,22.4,44.9,43,44.9c10.3,0,21.9-1.9,30.3-5.8v-9.5c-7.5,4.1-18.5,6.4-29.6,6.4
		c-17.6,0-29.4-6.3-33-24.4c-1-3.9-0.8-4.8-1.2-7.9h69.8c0-0.2,0.2-0.7,0.2-4.9C503.3,102.9,502.9,61.5,464.2,61.5 M433.3,105.5
		c0.9-22.1,10.7-35.2,30.3-35.2c29,0,30.1,30.7,30.1,35.2H433.3z M303.1,61.5c-10.3,0-19.6,2.1-26.4,4.3v9c4.3-1.3,14-4.1,25.8-4.1
		c20.6,0,29.9,9.5,29.9,28.6c-3-0.6-9.5-1.9-21.7-1.9c-8.4,0-43.4,1.1-43.4,29.4c0,24.5,26,28.2,37.8,28.2
		c11.4,0,36.7-3.2,36.7-27.9V99.5C341.8,74.8,330,61.5,303.1,61.5 M332.6,127.2c0,16.5-16.5,19.5-27.5,19.5
		c-11.2,0-28.6-3.2-28.6-19.8c0-18.1,21.7-20.8,33.1-20.8c12.3,0,20.6,1.3,23,1.7V127.2z M362.6,86.6c0,22.1,51.4,8.4,51.4,43.6
		c0,14.6-11.2,25.1-32.9,25.1c-12,0-21.3-3-28.4-6.5V139c8.2,4.3,17.8,7.1,28.1,7.1c13.8,0,23.9-5.2,23.9-15.9
		c0-27.1-51.4-11.6-51.4-43.6c0-12.9,8.8-25.3,30.9-25.3c9.7,0,18,2.6,24.5,5.4v9.2c-5.8-2.8-13.8-5.6-23.6-5.6
		C373,70.3,362.6,74.8,362.6,86.6 M0,109.2c0-31.9,13.4-47.9,40.1-47.9c0.1,0,0.1,0,0.2,0c12.1,0,21.8,4,29.1,11.9
		c7.3,7.9,10.9,18.6,10.9,31.9c0,4.3-0.2,8.5-0.5,12.5H17c2,15.6,10.5,23.4,25.6,23.4c12.3,0,22.7-2.3,31.4-6.8v15.1
		c-9.4,3.9-19.9,5.9-31.7,5.9c-0.2,0-0.4,0-0.5,0c-5.3,0-10.2-0.7-14.8-2c-4.5-1.3-8.9-3.5-13.1-6.6c-4.3-3.1-7.6-7.8-10.1-14.2
		C1.2,125.9,0,118.2,0,109.2 M16.7,102.6h46.7c-0.2-3-0.8-5.9-1.6-8.7c-0.8-2.8-2-5.6-3.6-8.4c-1.6-2.8-4-5.1-7.1-6.8
		c-3.1-1.7-6.8-2.5-11-2.5c-7.6,0-13.3,2-16.8,5.9C19.7,86,17.5,92.9,16.7,102.6z M89.1,107.3c0-9,1.2-16.7,3.7-23
		c2.5-6.3,5.9-11,10.2-14.2c4.3-3.1,8.7-5.3,13.2-6.6c4.5-1.3,9.4-1.9,14.6-1.9c6.6,0,13,0.9,19.4,2.7V23.9h16.6v102
		c0,2-0.2,3.9-0.6,5.8c-0.4,1.9-1.3,4.4-2.8,7.4c-1.4,3-3.4,5.7-5.9,7.9c-2.5,2.2-6.2,4.2-11.1,5.8c-4.9,1.6-10.6,2.4-17.1,2.4
		c-3.5,0-6.9-0.3-10.1-0.9c-3.2-0.6-6.8-1.9-10.6-4c-3.8-2.1-7.1-4.8-9.8-8.1c-2.7-3.3-5-8-6.9-14C90.1,122.3,89.1,115.3,89.1,107.3
		 M105.8,107.3c0,7,0.7,12.8,2,17.5c1.3,4.6,3.2,8,5.7,10.1c2.5,2.1,4.9,3.6,7.4,4.3c2.4,0.8,5.3,1.1,8.6,1.1
		c14,0,20.9-4.5,20.8-13.5V80.3c-6.2-2.5-12.6-3.8-19.4-3.8c-3.6,0-6.8,0.4-9.4,1.1c-2.7,0.7-5.3,2.1-7.8,4.1
		c-2.5,2-4.5,5.1-5.8,9.4C106.4,95.3,105.8,100.7,105.8,107.3z"/>
	<path class="st1" d="M662.8,0h-70.3c-38.8,0-70.3,31.5-70.3,70.3c0,38.8,31.5,70.3,70.3,70.3c38.8,0,70.3-31.5,70.3-70.3L662.8,0z"
		/>
	<path class="st2" d="M628.9,24.2c-3.2,0-6.2,0.4-9,1.2c-2.8,0.8-5.5,2.1-8.1,4.1c-2.6,1.9-4.7,4.8-6.3,8.7
		c-1.5,3.9-2.3,8.6-2.3,14.1c0,4.9,0.6,9.2,1.7,12.9c1.2,3.7,2.6,6.6,4.3,8.6c1.7,2,3.7,3.7,6,5c2.3,1.3,4.5,2.1,6.5,2.5
		c2,0.4,4.1,0.5,6.2,0.5c4,0,7.5-0.5,10.5-1.5c3-1,5.3-2.2,6.8-3.6c1.5-1.4,2.7-3,3.6-4.9c0.9-1.9,1.5-3.4,1.7-4.6
		c0.2-1.2,0.4-2.4,0.4-3.6V0l-10.2,0v25.8C636.9,24.7,632.9,24.2,628.9,24.2 M640.8,64.2c0,5.5-4.2,8.3-12.8,8.3
		c-2,0-3.8-0.2-5.3-0.7c-1.5-0.5-3-1.4-4.5-2.7c-1.5-1.3-2.7-3.4-3.5-6.2c-0.8-2.8-1.2-6.4-1.2-10.7c0-4,0.4-7.3,1.2-10
		c0.8-2.6,2-4.6,3.6-5.8c1.6-1.2,3.2-2.1,4.8-2.5c1.7-0.4,3.6-0.7,5.8-0.7c4.2,0,8.2,0.8,11.9,2.3V64.2z"/>
	<path class="st2" d="M549.1,53.6c0-19.6,8.2-29.4,24.6-29.4c0,0,0.1,0,0.1,0c7.5,0,13.4,2.4,17.9,7.3c4.5,4.9,6.7,11.4,6.7,19.6
		c0,2.7-0.1,5.2-0.3,7.7h-38.6c1.2,9.6,6.5,14.4,15.7,14.4c7.5,0,14-1.4,19.3-4.2v9.3c-5.8,2.4-12.3,3.6-19.5,3.6
		c-0.1,0-0.2,0-0.3,0c-3.3,0-6.3-0.4-9.1-1.2c-2.8-0.8-5.5-2.2-8.1-4.1c-2.6-1.9-4.7-4.8-6.2-8.7C549.9,63.9,549.1,59.1,549.1,53.6
		 M559.4,49.6h28.7c-0.1-1.9-0.5-3.6-1-5.3c-0.5-1.7-1.2-3.4-2.2-5.2c-1-1.7-2.4-3.1-4.3-4.2c-1.9-1-4.1-1.6-6.8-1.6
		c-4.7,0-8.1,1.2-10.3,3.6C561.2,39.4,559.9,43.6,559.4,49.6z"/>
</g>
</svg>
